<svg xmlns="http://www.w3.org/2000/svg" width="496" height="477.34" viewBox="0 0 500 481.34">
 <g transform="matrix(1.3333 0 0 -1.3333 -280 646.67)">
  <g>
   <path d="m499.64 381.92c0-1.9839-1.613-3.5925-3.5925-3.5925h-23.97v41.006h23.97c1.9796 0 3.5925-1.613 3.5925-3.5925zm43.261-59.926 26.252 26.252v96.144l-38.629 38.629h-128.26v-104.69h-25.48v104.69h-69.569c-4e-3 -52.124 0.1337-169.7 0.0776-187.4-4e-3 -1.4965-1.2119-2.6912-2.7084-2.6912-5.6713 0-18.243 4e-3 -19.278 4e-3 -1.9407 0-3.5149 1.5698-3.5149 3.5149v186.57h-69.81v-214.68l38.634-38.629h56.657v-65.864l39.832-38.832h84.875l40.096 40.096v70.845h-69.517v-41.407c0-3.489-2.8248-6.3139-6.3095-6.3139h-12.856c-3.489 0-6.3095 2.8248-6.3095 6.3096v113.79c0 3.4847 2.8205 6.3095 6.3095 6.3095h18.873v-42.864h69.81v43.692h2.717l36.93-85.759h72.26z" fill="#ffb81c"/>
   <path transform="matrix(.75 0 0 -.75 210 485)" d="m271.48 17.775v251.39h62.805v-58.264h28.713l49.389 114.35h63.064l-49.654-111.25 37.93-37.928v-115.65l-42.639-42.645h-149.61zm-253.71 0.005859v264.83l42.645 42.645h84.408v96.91l44.553 42.68h100.32l44.588-44.594v-73.053h-62.414v43.697c0 11.006-8.9177 19.924-19.924 19.924h-24.393c-11.006 0-19.926-8.9177-19.926-19.924v-158.96c0-11.006 8.9196-19.924 19.92-19.924h26.072v-54.641h-46.389v-139.59h-62.408v234.15c0 10.661-8.6436 19.305-19.305 19.305h-25.041c-10.989 0-19.902-8.9076-19.902-19.896v-233.55h-62.805zm316.51 54.639h47.102c10.983 0 19.926 8.9369 19.926 19.926v45.094c0 10.989-8.9427 19.93-19.926 19.93h-47.102v-84.949z" fill="#003da5"/>
  </g>
 </g>
</svg>
